<svg width="300" height="200" viewBox="0 0 300 200" fill="none" xmlns="http://www.w3.org/2000/svg">
<rect width="300" height="200" fill="#F05133"/>
<g clip-path="url(#clip0_265_21)">
<rect x="50" y="25" width="200" height="150" rx="15" fill="white"/>
<path d="M119.28 99.2L173.28 91.2C172.88 86 170.88 81.5333 167.28 77.8C163.68 73.9333 158.546 72 151.88 72C144.946 72 139.146 74.4 134.48 79.2C129.946 84 127.613 90.8667 127.48 99.8L128.08 109.8C129.28 118.467 132.613 124.867 138.08 129C143.546 133.133 150.48 135.2 158.88 135.2C164.48 135.2 169.613 134.4 174.28 132.8C179.08 131.067 182.946 129.2 185.88 127.2C187.613 128.267 189.013 129.733 190.08 131.6C191.28 133.333 191.88 135.267 191.88 137.4C191.88 140.733 190.346 143.667 187.28 146.2C184.213 148.6 180.08 150.467 174.88 151.8C169.813 153.133 163.946 153.8 157.28 153.8C147.013 153.8 137.88 151.933 129.88 148.2C122.013 144.333 115.88 138.6 111.48 131C107.08 123.4 104.88 114 104.88 102.8C104.88 94.6667 106.08 87.5333 108.48 81.4C111.013 75.2667 114.413 70.1333 118.68 66C123.08 61.8667 128.08 58.8 133.68 56.8C139.413 54.6667 145.48 53.6 151.88 53.6C160.546 53.6 168.146 55.4 174.68 59C181.346 62.6 186.546 67.5333 190.28 73.8C194.013 80.0667 195.88 87.2 195.88 95.2C195.88 98.9333 194.946 101.733 193.08 103.6C191.213 105.333 188.613 106.4 185.28 106.8L120.28 116.2L119.28 99.2Z" fill="#F05133"/>
</g>
<rect width="15" height="15" rx="7.5" transform="matrix(-1 0 0 1 75 45)" fill="#676767"/>
<rect width="40" height="10" rx="5" transform="matrix(-1 0 0 1 70 47.5)" fill="#ACACAC"/>
<rect width="15" height="15" rx="7.5" transform="matrix(-1 0 0 1 75 68.75)" fill="#676767"/>
<rect width="40" height="10" rx="5" transform="matrix(-1 0 0 1 70 71.25)" fill="#ACACAC"/>
<rect width="15" height="15" rx="7.5" transform="matrix(-1 0 0 1 75 92.5)" fill="#676767"/>
<rect width="40" height="10" rx="5" transform="matrix(-1 0 0 1 70 95)" fill="#ACACAC"/>
<rect width="15" height="15" rx="7.5" transform="matrix(-1 0 0 1 75 116.25)" fill="#676767"/>
<rect width="40" height="10" rx="5" transform="matrix(-1 0 0 1 70 118.75)" fill="#ACACAC"/>
<rect width="15" height="15" rx="7.5" transform="matrix(-1 0 0 1 75 140)" fill="#676767"/>
<rect width="40" height="10" rx="5" transform="matrix(-1 0 0 1 70 142.5)" fill="#ACACAC"/>
<defs>
<clipPath id="clip0_265_21">
<rect x="50" y="25" width="200" height="150" rx="15" fill="white"/>
</clipPath>
</defs>
</svg>
