<svg width="20" height="20" viewBox="0 0 20 20" fill="none" xmlns="http://www.w3.org/2000/svg">
<path d="M1.87524 13.5917L3.7616 12.4687C4.12548 13.1037 4.45676 13.6407 5.25089 13.6407C6.01183 13.6407 6.49186 13.3492 6.49186 12.2081V4.4593H8.80846V12.2402C8.80846 14.6004 7.40214 15.675 5.35045 15.675C4.62512 15.7136 3.90491 15.5352 3.28467 15.1632C2.66443 14.7912 2.17266 14.2437 1.87524 13.5917ZM10.0672 13.3468L11.9536 12.2722C12.1633 12.6909 12.4888 13.0428 12.8928 13.2875C13.2967 13.5323 13.7626 13.6599 14.237 13.6558C15.197 13.6558 15.8086 13.1836 15.8086 12.5323C15.8086 11.751 15.1799 11.474 14.1208 11.0163L13.5436 10.775C11.8724 10.0753 10.7636 9.19605 10.7636 7.34018C10.7636 5.63066 12.0875 4.32869 14.1558 4.32869C14.826 4.28091 15.4956 4.42832 16.0811 4.75256C16.6667 5.07679 17.1422 5.56348 17.4485 6.15191L15.6445 7.29178C15.5261 6.99969 15.3203 6.74988 15.0543 6.57547C14.7883 6.40106 14.4748 6.31028 14.1552 6.31516C14.0159 6.3013 13.8751 6.31616 13.742 6.35881C13.6088 6.40145 13.4862 6.47094 13.3818 6.56284C13.2775 6.65473 13.1938 6.76702 13.136 6.89253C13.0783 7.01804 13.0477 7.15402 13.0464 7.29178C13.0464 7.97571 13.4766 8.25208 14.4687 8.67538L15.0477 8.91968C17.017 9.74995 18.1252 10.5965 18.1252 12.5008C18.1252 14.552 16.4872 15.6755 14.2868 15.6755C12.1355 15.6755 10.7458 14.6657 10.0672 13.3468Z" fill="#F7DF1E"/>
</svg>
