<svg width="20" height="20" viewBox="0 0 20 20" fill="none" xmlns="http://www.w3.org/2000/svg">
<path d="M17.2172 9.3319L10.6677 2.7829C10.2908 2.4057 9.6791 2.4057 9.30179 2.7829L7.94185 4.14303L9.66689 5.86813C10.0679 5.73273 10.5276 5.82351 10.8471 6.14311C11.1683 6.46469 11.2584 6.9283 11.1196 7.33068L12.7822 8.99338C13.1845 8.85476 13.6486 8.94432 13.9698 9.26609C14.4188 9.71503 14.4188 10.4425 13.9698 10.8915C13.5207 11.3407 12.7932 11.3407 12.3439 10.8915C12.0062 10.5536 11.9227 10.0575 12.0937 9.64145L10.5431 8.0908L10.543 12.1713C10.6525 12.2255 10.7558 12.2978 10.847 12.3887C11.2959 12.8376 11.2959 13.5649 10.847 14.0145C10.398 14.4634 9.67023 14.4634 9.22166 14.0145C8.77268 13.5649 8.77268 12.8376 9.22166 12.3887C9.33261 12.2779 9.46101 12.1941 9.598 12.1379V8.01945C9.46094 7.96349 9.3327 7.88028 9.22158 7.76862C8.88149 7.42879 8.79959 6.92964 8.974 6.512L7.27345 4.81112L2.78298 9.30164C2.40567 9.67913 2.40567 10.2909 2.78298 10.6681L9.33212 17.2171C9.70918 17.5943 10.3207 17.5943 10.6982 17.2171L17.2171 10.699C17.5943 10.3216 17.5943 9.70973 17.2171 9.33245" fill="#F05133"/>
</svg>
