<svg width="20" height="20" viewBox="0 0 20 20" fill="none" xmlns="http://www.w3.org/2000/svg">
<path d="M10.4674 15.7861C10.323 15.6584 10.1723 15.5302 10.0283 15.3883C9.91327 15.4946 9.80542 15.5943 9.69131 15.6936C8.26661 16.9217 6.79811 17.433 5.9276 16.9359C5.08549 16.4603 4.8202 15.055 5.15723 13.2871C5.19318 13.0955 5.23635 12.9038 5.28675 12.7122C5.13557 12.6677 4.9916 12.6268 4.84764 12.5787C3.0551 11.9668 1.875 10.9732 1.875 9.97912C1.875 9.02108 2.97614 8.09107 4.69598 7.4948C4.88857 7.43072 5.09175 7.36709 5.30071 7.31013C5.25256 7.12546 5.21453 6.94792 5.17842 6.77615C4.81827 4.98155 5.07008 3.54782 5.91941 3.06502C6.80437 2.55374 8.27287 3.10062 9.74764 4.38528C9.83382 4.46315 9.92049 4.54858 10.0139 4.63357C10.1506 4.50586 10.2802 4.37816 10.4169 4.26469C11.8132 3.06324 13.2018 2.56086 14.0511 3.04366C14.936 3.54026 15.1956 5.07366 14.7998 6.96927C14.7781 7.09031 14.7516 7.20378 14.7208 7.32526C14.9009 7.3751 15.0805 7.43161 15.2461 7.48857C17.0021 8.08484 18.1393 9.01485 18.1249 9.99425C18.1249 10.995 16.9087 11.982 15.0434 12.5925C14.9428 12.621 14.8422 12.6566 14.741 12.6846C14.7844 12.8265 14.8128 12.9685 14.8417 13.1104C15.2158 14.9491 14.9279 16.454 14.0573 16.9511C13.8287 17.0783 13.5658 17.1431 13.299 17.138C12.5012 17.1366 11.4882 16.6512 10.4674 15.7861ZM11.8782 13.1808C11.4648 13.7751 11.0105 14.3442 10.518 14.8846C10.6547 15.0181 10.7915 15.1404 10.9282 15.2539C12.1155 16.2618 13.2095 16.6382 13.7208 16.3472C13.8769 16.2229 14.0045 16.071 14.096 15.9003C14.1875 15.7296 14.241 15.5437 14.2533 15.3536C14.3572 14.6491 14.3279 13.9333 14.1666 13.2382C14.145 13.1104 14.1185 12.9827 14.0805 12.8479C13.3553 13.0048 12.6196 13.116 11.8782 13.1808ZM5.84719 13.4081C5.55252 14.9211 5.76823 16.0486 6.28052 16.3401C6.46201 16.4102 6.65797 16.4426 6.8545 16.4349C7.05104 16.4272 7.24333 16.3796 7.41777 16.2956C8.09638 16.032 8.71439 15.6513 9.23872 15.1738C9.34657 15.0884 9.4472 14.9892 9.55553 14.8899C9.05223 14.3494 8.5859 13.7803 8.15924 13.1861C7.42067 13.1291 6.68724 13.025 5.96419 12.8746C5.91941 13.0602 5.8833 13.2373 5.84719 13.4081ZM10.036 14.4018C10.3529 14.0538 10.6692 13.6707 10.986 13.2448C10.6692 13.2591 10.3384 13.2662 10.0072 13.2662C9.6759 13.2662 9.36679 13.2591 9.0572 13.2448C9.38075 13.6631 9.70527 14.0538 10.036 14.4018ZM8.5242 7.47344C8.25072 7.86368 7.98447 8.2744 7.73266 8.7087C7.48084 9.13455 7.25118 9.56751 7.04173 9.99915C7.25792 10.425 7.48806 10.858 7.73988 11.2985C7.99169 11.7243 8.25795 12.1439 8.53143 12.5404C9.00616 12.5689 9.50305 12.5849 10.0067 12.5849C10.5103 12.5849 11.0139 12.5707 11.4964 12.5355C11.7554 12.1453 12.0217 11.7261 12.274 11.2931C12.5262 10.8602 12.7631 10.4201 12.9721 9.99425C12.7631 9.57552 12.5258 9.14256 12.274 8.70915C12.0221 8.27574 11.7559 7.86368 11.4896 7.47388C11.0081 7.43828 10.5108 7.41692 10.0072 7.41692C9.50353 7.41692 9.00664 7.43784 8.5242 7.47344ZM6.14956 12.2223C6.64334 12.3265 7.14311 12.4048 7.64647 12.4568C7.47362 12.1871 7.30125 11.917 7.13562 11.6331C6.97722 11.3563 6.81881 11.0796 6.67485 10.8028C6.46637 11.2851 6.29352 11.7617 6.14956 12.2223ZM12.8782 11.626C12.7126 11.9099 12.5469 12.1795 12.3818 12.4425C12.8927 12.3834 13.3997 12.2981 13.9004 12.1871C13.744 11.7079 13.5615 11.2364 13.3534 10.7743C13.2022 11.0582 13.0438 11.3421 12.8782 11.626ZM4.9189 8.14758C3.45088 8.65886 2.56592 9.40332 2.56592 9.98624C2.59391 10.1738 2.66169 10.3544 2.76539 10.5176C2.86908 10.6809 3.00664 10.8236 3.17017 10.9376C3.73185 11.3741 4.37597 11.711 5.07008 11.9312C5.1996 11.9757 5.33634 12.0096 5.47308 12.0523C5.69414 11.354 5.96089 10.6688 6.27185 10.0005C5.96029 9.34357 5.69587 8.6684 5.4803 7.97938C5.28611 8.02744 5.09897 8.08351 4.9189 8.14758ZM13.7492 9.98624C14.0685 10.6461 14.3419 11.3242 14.5677 12.0162C14.6616 11.9878 14.755 11.9593 14.8412 11.9308C16.446 11.4057 17.4412 10.6034 17.4465 9.97868C17.4465 9.39664 16.5254 8.64373 15.0213 8.1329C14.8701 8.0835 14.7049 8.03367 14.5398 7.98383C14.3218 8.6659 14.0577 9.33468 13.7492 9.98624ZM12.8715 8.35361C13.0371 8.6375 13.1955 8.91473 13.339 9.1915C13.5389 8.73916 13.7119 8.27702 13.857 7.80717C13.3682 7.69741 12.8734 7.61214 12.3746 7.55175C12.5474 7.81385 12.7131 8.07683 12.8715 8.35361ZM6.15678 7.80139C6.30122 8.25571 6.47359 8.71716 6.67485 9.1924C6.81929 8.91562 6.97722 8.63884 7.13562 8.36206C7.29403 8.08528 7.45918 7.81563 7.63203 7.55264C7.11396 7.61539 6.62478 7.70038 6.15678 7.80139ZM10.8704 4.78442C10.7481 4.89077 10.6259 5.00424 10.5031 5.11816C11.0028 5.65191 11.4621 6.21689 11.8777 6.80908C12.6101 6.87442 13.3364 6.98833 14.0511 7.14994C14.08 7.04359 14.0992 6.93679 14.1233 6.83044C14.4603 5.19781 14.2528 3.9483 13.7059 3.63637C13.5858 3.57409 13.4496 3.54332 13.312 3.54738C12.7241 3.54471 11.8218 3.96788 10.8704 4.78309V4.78442ZM6.26463 3.65417C5.75378 3.94519 5.55204 5.10926 5.85441 6.64266C5.89052 6.80597 5.92663 6.96883 5.96948 7.13926C6.68514 6.98359 7.4112 6.8721 8.14287 6.80552C8.55994 6.21258 9.0217 5.64754 9.52471 5.1146C9.44575 5.03628 9.35909 4.96553 9.28012 4.89433C8.27865 4.01906 7.3157 3.55717 6.68689 3.55717C6.5391 3.55251 6.39285 3.58611 6.26463 3.65417ZM10.9711 6.74901C10.6743 6.35214 10.3541 5.97066 10.012 5.6063C9.68842 5.95383 9.36438 6.3374 9.04901 6.74901C9.36583 6.73477 9.68216 6.72765 10.0062 6.72765C10.3302 6.72765 10.6543 6.73344 10.9711 6.74901ZM8.56754 10.0147C8.56079 9.83227 8.59306 9.65039 8.66251 9.4795C8.73196 9.3086 8.83722 9.15205 8.97226 9.01882C9.10729 8.88559 9.26945 8.77829 9.44943 8.70309C9.62942 8.62788 9.82369 8.58624 10.0211 8.58055C10.4195 8.59309 10.7962 8.75111 11.0687 9.01995C11.3412 9.2888 11.4872 9.64653 11.4747 10.0147C11.4876 10.3832 11.3416 10.7414 11.069 11.0105C10.7964 11.2796 10.4193 11.4378 10.0206 11.4502C9.8231 11.4445 9.62873 11.4029 9.44867 11.3276C9.26862 11.2523 9.10643 11.1448 8.97141 11.0115C8.8364 10.8781 8.73122 10.7214 8.66191 10.5503C8.5926 10.3793 8.56053 10.1973 8.56754 10.0147Z" fill="#61DAFB"/>
</svg>
