<svg width="20" height="20" viewBox="0 0 20 20" fill="none" xmlns="http://www.w3.org/2000/svg">
<path d="M3.39569 2.5L4.59784 15.996L9.99202 17.5L15.4013 15.9905L16.6044 2.5H3.39569ZM14.1069 5.59199L13.7068 10.0879L13.708 10.1122L13.7063 10.168V10.1676L13.422 13.3112L13.3907 13.5905L10 14.5283L9.9974 14.5307L6.61262 13.5876L6.38342 10.9886H8.04324L8.161 12.3101L10.0005 12.8087L10 12.8097V12.8094L11.8463 12.3038L12.0415 10.1517H8.1818L8.14868 9.78785L8.07325 8.93552L8.03367 8.47786H12.1882L12.3393 6.80406H6.0116L5.97848 6.44048L5.90316 5.58792L5.86347 5.13026H14.1465L14.1069 5.59199Z" fill="#2965F1"/>
</svg>
