<svg width="16" height="16" viewBox="0 0 16 16" fill="none" xmlns="http://www.w3.org/2000/svg">
<g clip-path="url(#clip0_5104_111)">
<path d="M2.83333 1.28962e-06H13.1667C13.5388 -0.000358485 13.9074 0.0745614 14.2514 0.220473C14.5953 0.366385 14.9078 0.580424 15.1709 0.850341C15.4341 1.12026 15.6428 1.44075 15.785 1.79349C15.9273 2.14622 16.0004 2.52426 16 2.90598V13.094C16.0004 13.4757 15.9273 13.8538 15.785 14.2065C15.6428 14.5592 15.4341 14.8797 15.1709 15.1497C14.9078 15.4196 14.5953 15.6336 14.2514 15.7795C13.9074 15.9254 13.5388 16.0004 13.1667 16H2.83333C2.46116 16.0004 2.09256 15.9254 1.74865 15.7795C1.40474 15.6336 1.09225 15.4196 0.829083 15.1497C0.565914 14.8797 0.357226 14.5592 0.214961 14.2065C0.0726974 13.8538 -0.000349523 13.4757 1.25738e-06 13.094V2.90598C-0.000349523 2.52426 0.0726974 2.14622 0.214961 1.79349C0.357226 1.44075 0.565914 1.12026 0.829083 0.850341C1.09225 0.580424 1.40474 0.366385 1.74865 0.220473C2.09256 0.0745614 2.46116 -0.000358485 2.83333 1.28962e-06Z" fill="#777BB3"/>
<path d="M3.77433 8.9348C4.16337 8.9348 4.45379 8.86305 4.63756 8.72163C4.81935 8.58165 4.94492 8.33914 5.01073 8.00086C5.07209 7.68466 5.04871 7.46388 4.94127 7.34474C4.83141 7.22305 4.5939 7.16133 4.23534 7.16133H3.61362L3.26896 8.9348H3.77433ZM1.74087 11.1194C1.71201 11.1194 1.68461 11.1065 1.66626 11.0842C1.64788 11.0619 1.64043 11.0325 1.64594 11.0042L2.55938 6.30449C2.56821 6.25905 2.60803 6.22623 2.65434 6.22623H4.62302C5.24173 6.22623 5.70225 6.39422 5.99171 6.7256C6.28272 7.05873 6.37259 7.52437 6.2588 8.10959C6.21249 8.348 6.13285 8.56943 6.02209 8.76767C5.9112 8.96614 5.76464 9.14977 5.58643 9.31358C5.3731 9.51324 5.13165 9.65802 4.86943 9.74321C4.61138 9.82727 4.27996 9.8699 3.88441 9.8699H3.08726L2.85961 11.0411C2.85077 11.0866 2.81098 11.1194 2.76468 11.1194H1.74087Z" fill="black"/>
<path d="M3.69342 7.25807H4.2354C4.66815 7.25807 4.81848 7.35303 4.86955 7.40962C4.95429 7.50358 4.97029 7.70169 4.91583 7.98251C4.85463 8.2969 4.74119 8.51981 4.57861 8.64499C4.41216 8.77313 4.14156 8.83807 3.77439 8.83807H3.38636L3.69342 7.25807ZM4.62308 6.1295H2.65437C2.56176 6.1295 2.48215 6.19515 2.46448 6.28605L1.55104 10.9858C1.54002 11.0425 1.55491 11.1011 1.59164 11.1457C1.6284 11.1903 1.68315 11.2161 1.74093 11.2161H2.76471C2.85735 11.2161 2.93696 11.1505 2.95463 11.0596L3.16706 9.96664H3.88447C4.29018 9.96664 4.63172 9.9224 4.89951 9.83517C5.17491 9.7457 5.42829 9.59398 5.65256 9.38426C5.83803 9.21362 5.99081 9.02209 6.10656 8.81492C6.22236 8.60768 6.30555 8.37658 6.35382 8.12804C6.47361 7.51203 6.37629 7.01875 6.06461 6.66199C5.75597 6.30865 5.27094 6.1295 4.62308 6.1295ZM3.15165 9.03154H3.77439C4.18716 9.03154 4.49461 8.95379 4.69663 8.79828C4.89867 8.64273 5.03494 8.38312 5.10575 8.01934C5.1735 7.67006 5.14264 7.42358 5.01317 7.28C4.88355 7.13641 4.62433 7.0646 4.2354 7.0646H3.53394L3.15165 9.03154ZM4.62308 6.32297C5.21532 6.32297 5.64737 6.47839 5.91893 6.78926C6.19046 7.10013 6.27224 7.53405 6.1639 8.09115C6.1193 8.32063 6.04388 8.53045 5.9377 8.72053C5.83139 8.91075 5.69257 9.08468 5.52103 9.24239C5.3166 9.43369 5.0895 9.57003 4.8396 9.65122C4.5897 9.73264 4.27141 9.77317 3.88447 9.77317H3.00754L2.76471 11.0227H1.74093L2.65437 6.32297H4.62308Z" fill="white"/>
<path d="M8.60622 9.86987C8.57733 9.86987 8.54995 9.85698 8.5316 9.83466C8.51319 9.81238 8.50574 9.78307 8.51126 9.75469L8.91532 7.67526C8.95375 7.4775 8.94427 7.33556 8.88865 7.27558C8.8546 7.23892 8.75232 7.17743 8.4499 7.17743H7.71787L7.20986 9.79158C7.20102 9.83705 7.1612 9.86987 7.11489 9.86987H6.09918C6.07029 9.86987 6.04291 9.85698 6.02453 9.83466C6.00616 9.81238 5.99871 9.78304 6.00422 9.75469L6.91765 5.05498C6.92649 5.00954 6.96631 4.97672 7.01261 4.97672H8.02833C8.05722 4.97672 8.08459 4.98961 8.10297 5.0119C8.12135 5.03421 8.1288 5.06352 8.12329 5.0919L7.90286 6.2262H8.69035C9.29026 6.2262 9.69706 6.33197 9.934 6.54956C10.1755 6.77153 10.2509 7.12645 10.158 7.60458L9.73302 9.79158C9.72418 9.83705 9.68439 9.86987 9.63805 9.86987H8.60622Z" fill="black"/>
<path d="M8.02839 4.87999H7.01267C6.92004 4.87999 6.84042 4.94564 6.82275 5.03654L5.90932 9.73626C5.89829 9.79298 5.91319 9.85163 5.94995 9.89622C5.98671 9.94082 6.04146 9.96661 6.09924 9.96661H7.11496C7.20756 9.96661 7.28721 9.90096 7.30488 9.81007L7.79768 7.27417H8.44996C8.75187 7.27417 8.81523 7.33866 8.81777 7.34143C8.83609 7.36113 8.86018 7.45239 8.82042 7.65682L8.41636 9.73626C8.40533 9.79298 8.42023 9.85163 8.45699 9.89622C8.49375 9.94082 8.5485 9.96661 8.60628 9.96661H9.63812C9.73072 9.96661 9.81037 9.90096 9.82804 9.81007L10.253 7.62306C10.3527 7.10969 10.2674 6.72459 9.99952 6.47837C9.74388 6.24359 9.31567 6.12948 8.69041 6.12948H8.02023L8.21831 5.11038C8.22931 5.05366 8.21444 4.99497 8.17768 4.95041C8.14092 4.90582 8.08617 4.87999 8.02839 4.87999ZM8.02839 5.07346L7.78555 6.32294H8.69041C9.25975 6.32294 9.65246 6.42232 9.8686 6.62082C10.0847 6.81945 10.1495 7.14129 10.0631 7.58617L9.63812 9.77314H8.60628L9.01034 7.69374C9.05632 7.45719 9.03943 7.29584 8.95959 7.20981C8.87972 7.12378 8.70982 7.0807 8.44996 7.0807H7.63816L7.11496 9.77314H6.09924L7.01267 5.07346H8.02839Z" fill="white"/>
<path d="M11.7652 8.9348C12.1542 8.9348 12.4446 8.86305 12.6284 8.72163C12.8102 8.58168 12.9358 8.33917 13.0016 8.00086C13.063 7.68466 13.0396 7.46388 12.9321 7.34474C12.8223 7.22305 12.5847 7.16133 12.2262 7.16133H11.6045L11.2598 8.9348H11.7652ZM9.73175 11.1194C9.70289 11.1194 9.67548 11.1065 9.65713 11.0842C9.63875 11.0619 9.63127 11.0325 9.63679 11.0042L10.5502 6.30449C10.5591 6.25905 10.5989 6.22623 10.6452 6.22623H12.6139C13.2326 6.22623 13.6931 6.39422 13.9826 6.7256C14.2736 7.05869 14.3634 7.52434 14.2497 8.10959C14.2033 8.348 14.1237 8.56943 14.0129 8.76767C13.902 8.96614 13.7555 9.14977 13.5773 9.31358C13.3639 9.51324 13.1225 9.65802 12.8603 9.74321C12.6022 9.82727 12.2708 9.8699 11.8753 9.8699H11.0781L10.8505 11.0411C10.8416 11.0866 10.8019 11.1194 10.7555 11.1194H9.73175Z" fill="black"/>
<path d="M11.6842 7.25807H12.2262C12.659 7.25807 12.8093 7.35303 12.8604 7.40962C12.9451 7.50358 12.9611 7.70169 12.9066 7.98248C12.8454 8.2969 12.732 8.51981 12.5694 8.64499C12.403 8.77313 12.1324 8.83807 11.7652 8.83807H11.3772L11.6842 7.25807ZM12.6139 6.1295H10.6452C10.5526 6.1295 10.473 6.19515 10.4553 6.28605L9.54189 10.9858C9.53086 11.0425 9.54576 11.1011 9.58249 11.1457C9.61924 11.1903 9.674 11.2161 9.73178 11.2161H10.7556C10.8482 11.2161 10.9278 11.1505 10.9455 11.0596L11.1579 9.96664H11.8753C12.281 9.96664 12.6225 9.9224 12.8903 9.83517C13.1657 9.7457 13.4192 9.59395 13.6434 9.3842C13.8289 9.21359 13.9816 9.02209 14.0974 8.81492C14.2132 8.60768 14.2964 8.37658 14.3446 8.12804C14.4644 7.512 14.3671 7.01872 14.0554 6.66196C13.7468 6.30865 13.2618 6.1295 12.6139 6.1295ZM11.1425 9.03154H11.7652C12.178 9.03154 12.4854 8.95379 12.6874 8.79828C12.8895 8.64273 13.0258 8.38312 13.0966 8.01934C13.1643 7.67006 13.1335 7.42358 13.004 7.28C12.8744 7.13641 12.6151 7.0646 12.2262 7.0646H11.5248L11.1425 9.03154ZM12.6139 6.32297C13.2061 6.32297 13.6382 6.47839 13.9097 6.78926C14.1813 7.10013 14.2631 7.53405 14.1547 8.09115C14.1101 8.32063 14.0347 8.53045 13.9285 8.72053C13.8222 8.91075 13.6834 9.08468 13.5118 9.24239C13.3074 9.43369 13.0803 9.57003 12.8304 9.65122C12.5805 9.73264 12.2622 9.77317 11.8753 9.77317H10.9984L10.7556 11.0227H9.73178L10.6452 6.32297H12.6139Z" fill="white"/>
</g>
<defs>
<clipPath id="clip0_5104_111">
<rect width="16" height="16" fill="white"/>
</clipPath>
</defs>
</svg>
