<svg width="20" height="20" viewBox="0 0 20 20" fill="none" xmlns="http://www.w3.org/2000/svg">
<path fill-rule="evenodd" clip-rule="evenodd" d="M9.99993 2.07568C5.51324 2.07568 1.875 5.71312 1.875 10.2006C1.875 13.7906 4.20304 16.836 7.43132 17.9105C7.83725 17.9858 7.98633 17.7342 7.98633 17.5196C7.98633 17.3259 7.97879 16.6858 7.97529 16.0069C5.71493 16.4984 5.23796 15.0483 5.23796 15.0483C4.86837 14.1092 4.33584 13.8594 4.33584 13.8594C3.59853 13.3552 4.3914 13.3657 4.3914 13.3657C5.20715 13.4228 5.63689 14.2029 5.63689 14.2029C6.36155 15.4448 7.53762 15.0858 8.00126 14.8784C8.07418 14.3532 8.28475 13.9947 8.51711 13.7918C6.71245 13.5866 4.81522 12.8898 4.81522 9.77653C4.81522 8.88947 5.13275 8.16467 5.6525 7.59555C5.568 7.39104 5.2899 6.56466 5.73107 5.44551C5.73107 5.44551 6.41322 5.22714 7.96587 6.27835C8.61411 6.09819 9.30931 6.00764 9.99993 6.00455C10.6902 6.00764 11.3858 6.09792 12.0352 6.27808C13.586 5.22687 14.2673 5.44524 14.2673 5.44524C14.7096 6.56426 14.4315 7.39077 14.3471 7.59528C14.8681 8.1644 15.1833 8.8892 15.1833 9.77626C15.1833 12.8969 13.2826 13.5839 11.4733 13.7852C11.7649 14.0373 12.0246 14.5319 12.0246 15.2898C12.0246 16.3769 12.0152 17.2519 12.0152 17.5195C12.0152 17.7357 12.1615 17.9891 12.5732 17.9093C15.7997 16.8337 18.125 13.7892 18.125 10.2006C18.1249 5.71339 14.487 2.07568 9.99993 2.07568Z" fill="#C0C4CE"/>
<path d="M4.95232 13.7412C4.93443 13.7815 4.87092 13.7937 4.81307 13.7661C4.75387 13.7397 4.72091 13.6847 4.74001 13.6442C4.7575 13.6025 4.82114 13.591 4.87994 13.6189C4.93914 13.6454 4.97291 13.7008 4.95232 13.7412ZM5.28142 14.1084C5.24281 14.1443 5.16706 14.1276 5.11566 14.0707C5.06238 14.0142 5.05243 13.9384 5.09185 13.902C5.13194 13.8662 5.2054 13.8831 5.25868 13.9396C5.3117 13.997 5.32206 14.0719 5.28142 14.1084ZM5.60191 14.5762C5.55213 14.6109 5.47059 14.5785 5.42027 14.5062C5.37049 14.4338 5.37049 14.347 5.42162 14.3125C5.4718 14.2777 5.55213 14.3091 5.60326 14.3807C5.65277 14.454 5.65277 14.5409 5.60191 14.5762ZM6.04066 15.0284C5.99626 15.0775 5.90127 15.0643 5.83185 14.9974C5.76094 14.9319 5.74116 14.8387 5.7857 14.7897C5.83091 14.7404 5.9263 14.7542 5.99613 14.8206C6.06703 14.886 6.08816 14.9795 6.04066 15.0284ZM6.64612 15.2909C6.62634 15.3545 6.53512 15.3834 6.44295 15.3563C6.35106 15.3284 6.29092 15.254 6.30975 15.1897C6.32859 15.1255 6.42048 15.0955 6.51319 15.1244C6.60508 15.1522 6.66522 15.2262 6.64612 15.2909ZM7.31118 15.3394C7.31346 15.4065 7.23543 15.4619 7.13896 15.4632C7.04168 15.4655 6.96297 15.4112 6.96203 15.3452C6.96203 15.2776 7.03845 15.2228 7.13559 15.2209C7.23206 15.2192 7.31118 15.2731 7.31118 15.3394ZM7.92982 15.2342C7.94139 15.2995 7.87425 15.3666 7.77832 15.3845C7.68414 15.402 7.59668 15.3614 7.58457 15.2967C7.573 15.2297 7.64135 15.1625 7.73553 15.1452C7.8316 15.1286 7.91771 15.1679 7.92982 15.2342Z" fill="#C0C4CE"/>
</svg>
