<svg width="20" height="20" viewBox="0 0 20 20" fill="none" xmlns="http://www.w3.org/2000/svg">
<path d="M16.6214 5.47564L10.6954 2.03465C10.3216 1.82178 9.83501 1.82178 9.45832 2.03465L3.46894 5.47564C3.08324 5.69752 2.8103 6.11452 2.8103 6.56055V13.4334C2.8103 13.8794 3.09037 14.2966 3.47606 14.5197L5.05847 15.4184C5.8148 15.791 6.0821 15.791 6.42627 15.791C7.54612 15.791 8.1858 15.1138 8.1858 13.9326V7.14742C8.1858 7.05161 8.13594 6.90902 8.04187 6.90902H7.28621C7.19053 6.90902 6.97632 7.05161 6.97632 7.14729V13.9325C6.97632 14.4561 6.50273 14.9771 5.61766 14.5346L3.98256 13.5921C3.92558 13.5612 3.8854 13.499 3.8854 13.4334V6.56055C3.8854 6.49578 3.95999 6.43074 4.01737 6.39754L9.9874 2.96246C10.0432 2.93088 10.1251 2.93088 10.1808 2.96246L16.078 6.39674C16.1344 6.43074 16.1145 6.49376 16.1145 6.56055V13.4334C16.1145 13.499 16.1391 13.5628 16.0834 13.5944L10.1587 17.0315C10.1079 17.062 10.0449 17.062 9.98928 17.0315L8.46976 16.1245C8.42394 16.0979 8.36951 16.0884 8.32557 16.113C7.90278 16.3526 7.82484 16.3844 7.42826 16.5219C7.33069 16.5559 7.18677 16.6149 7.48336 16.7811L9.47202 17.9576C9.66189 18.0672 9.87727 18.125 10.0965 18.125C10.3172 18.125 10.5333 18.0677 10.7237 17.9576L16.6213 14.5197C17.007 14.295 17.1898 13.8794 17.1898 13.4334V6.56055C17.1898 6.11452 17.007 5.69859 16.6214 5.47564ZM11.9366 12.3443C10.3607 12.3443 10.0136 11.9096 9.8979 11.126C9.88446 11.0416 9.81283 10.9406 9.72696 10.9406H8.95678C8.8615 10.9406 8.7849 11.0562 8.7849 11.1511C8.7849 12.1544 9.33038 13.3701 11.9367 13.3701C13.8234 13.3701 14.905 12.637 14.905 11.3396C14.905 10.0533 14.036 9.7157 12.2063 9.47354C10.3568 9.22909 10.169 9.10558 10.169 8.67232C10.169 8.31512 10.3281 7.83871 11.6975 7.83871C12.9211 7.83871 13.3721 8.10131 13.5577 8.92604C13.5735 9.00358 13.6444 9.05922 13.7243 9.05922H14.4976C14.5452 9.05922 14.5906 9.04 14.6239 9.006C14.6562 8.96945 14.6732 8.92362 14.6689 8.87444C14.5492 7.45423 13.6056 6.79237 11.6973 6.79237C9.9999 6.79237 8.98729 7.5092 8.98729 8.71075C8.98729 10.014 9.99479 10.3742 11.6242 10.5353C13.5735 10.7264 13.7251 11.0113 13.7251 11.3947C13.7251 12.0606 13.1905 12.3443 11.9366 12.3443Z" fill="#689F63"/>
</svg>
